<mxfile host="app.diagrams.net" modified="2024-04-09T06:39:55.720Z" agent="Mozilla/5.0 (Windows NT 10.0; Win64; x64) AppleWebKit/537.36 (KHTML, like Gecko) Chrome/123.0.0.0 Safari/537.36 Edg/123.0.0.0" version="24.2.3" etag="sBuc8ZZooeSqrYbL8ufU" type="github">
  <diagram name="Seite-1" id="ljX8qb0HX1icki1Ch2LH">
    <mxGraphModel>
      <root>
        <mxCell id="0" />
        <mxCell id="1" parent="0" />
      </root>
    </mxGraphModel>
  </diagram>
</mxfile>
